<?xml version="1.0" encoding="utf-8"?>
<!-- Generator: Adobe Illustrator 22.1.0, SVG Export Plug-In . SVG Version: 6.00 Build 0)  -->
<svg version="1.1" id="Calque_1" xmlns:ev="http://www.w3.org/2001/xml-events"
	 xmlns="http://www.w3.org/2000/svg" xmlns:xlink="http://www.w3.org/1999/xlink" x="0px" y="0px" viewBox="0 0 1881 1498"
	 style="enable-background:new 0 0 1881 1498;" xml:space="preserve">
<style type="text/css">
	.st0{clip-path:url(#SVGID_2_);}
	.st1{fill:none;stroke:#000000;stroke-width:1.5;stroke-linecap:square;stroke-miterlimit:10;}
	.st2{fill:#FFFFFF;}
	.st3{fill:none;stroke:#000000;stroke-linecap:square;stroke-miterlimit:10;}
</style>
<title>/Users/corentin/Projets/Perso/Maison/3D-Plan.sh3d</title>
<desc>
	Creator: FreeHEP Graphics2D Driver Producer: com.eteks.sweethome3d.swing.PlanComponent$SVGSupport$1 Revision: 12753  Source: corentin Date: Tuesday, May 29, 2018 8:07:44 PM GMT+01:00
	</desc>
<g>
	<g transform="matrix(100, 0, 0, 100, 61.25, 73.1907787322998)">
		<g>
			<path d="M0.5,0c0,0.3-0.2,0.5-0.5,0.5S-0.5,0.3-0.5,0S-0.3-0.5,0-0.5S0.5-0.3,0.5,0z M0.5,0c0-0.3-0.2-0.5-0.5-0.5
				S-0.5-0.3-0.5,0S-0.3,0.5,0,0.5S0.5,0.3,0.5,0z M-0.6,0h0.1h0v0h0L-0.6,0L-0.6,0L-0.6,0L-0.6,0z M0.6,0H0.5h0v0h0L0.6,0L0.6,0
				L0.6,0L0.6,0z M0,0.6V0.5v0h0v0L0,0.6L0,0.6L0,0.6L0,0.6z M0,0L0,0C0,0,0,0,0,0C0,0,0,0,0,0L0,0C0,0,0,0,0,0C0,0,0,0,0,0z M0-0.5
				l0.2,0.9l0,0l0,0L0,0.3l0,0l0,0l-0.2,0.1l0,0l0,0L0-0.5L0-0.5L0-0.5z M0-0.5l-0.2,0.9l0,0l0,0L0,0.3l0,0l0,0l0.2,0.1l0,0l0,0
				L0-0.5L0-0.5L0-0.5z M-0.1-0.6v-0.1h0l0,0l0.1,0.1l0,0v0v-0.1v0h0v0v0.1h0l0,0l-0.1-0.1l0,0v0L-0.1-0.6L-0.1-0.6L-0.1-0.6
				L-0.1-0.6z"/>
		</g>
	</g>
	<g transform="matrix(1, 0, 0, 1, 161.25, 23.190778732299805)">
		<g>
			<defs>
				<path id="SVGID_1_" d="M1539.9,130v108.1H1389V130H1539.9z M1698,10v228.1h-148.1V120H1389V10H1698z M315,10v435H10l0-435H315z
					 M1698,248.1V469h-309V248.1H1698z M1698,479v312h-309V479H1698z M1698,801v309.3h-309V801H1698z M1379,10v1444h-149V234H478
					v975.1H10L10,455h315V10H1379z M1698,1120.3V1454h-309v-333.7H1698z M-10-10l0,1239.1h508V254h712v1220h508V-10H-10z"/>
			</defs>
			<clipPath id="SVGID_2_">
				<use xlink:href="#SVGID_1_"  style="overflow:visible;"/>
			</clipPath>
			<g class="st0">
				<g transform="matrix(1, 0, 0, 1, -10, -10)">
					
						<image style="overflow:visible;enable-background:new    ;" width="1729" height="1485" xlink:href="2AB56C862B2A353A.PNG"  transform="matrix(1 0 0 1 0 -4.159856e-05)">
					</image>
				</g>
			</g>
		</g>
	</g>
	<g transform="matrix(1, 0, 0, 1, 161.25, 23.190778732299805)">
		<g>
			<path class="st1" d="M1539.9,130v108.1H1389V130H1539.9z M1698,10v228.1h-148.1V120H1389V10H1698z M315,10v435H10l0-435H315z
				 M1698,248.1V469h-309V248.1H1698z M1698,479v312h-309V479H1698z M1698,801v309.3h-309V801H1698z M1379,10v1444h-149V234H478
				v975.1H10L10,455h315V10H1379z M1698,1120.3V1454h-309v-333.7H1698z M-10-10l0,1239.1h508V254h712v1220h508V-10H-10z"/>
		</g>
	</g>
	<g transform="matrix(1, 0, 0, 1, 161.25, 23.190778732299805)">
		<g>
			<path class="st2" d="M784-10v20h140v-20H784z"/>
		</g>
	</g>
	<g transform="matrix(1, 0, 0, 1, 161.25, 23.190778732299805)">
		<g>
			<path class="st3" d="M784-10v20h140v-20H784z"/>
		</g>
	</g>
	<g transform="matrix(1, 0, 0, 1, 161.25, 23.190778732299805)">
		<g>
			<path class="st3" d="M917.1,7c0,69.7-56.5,126.2-126.2,126.2V7H917.1z"/>
		</g>
	</g>
	<g transform="matrix(1, 0, 0, 1, 161.25, 23.190778732299805)">
		<g>
			<path class="st2" d="M784-8.6h140V7H784V-8.6z"/>
		</g>
	</g>
	<g transform="matrix(1, 0, 0, 1, 161.25, 23.190778732299805)">
		<g>
			<path class="st3" d="M784-8.6h140V7H784V-8.6z"/>
		</g>
	</g>
	<g transform="matrix(1, 0, 0, 1, 161.25, 23.190778732299805)">
		<g>
			<path class="st2" d="M1510,1454v20h140v-20H1510z"/>
		</g>
	</g>
	<g transform="matrix(1, 0, 0, 1, 161.25, 23.190778732299805)">
		<g>
			<path class="st3" d="M1510,1454v20h140v-20H1510z"/>
		</g>
	</g>
	<g transform="matrix(1, 0, 0, 1, 161.25, 23.190778732299805)">
		<g>
			<path class="st2" d="M1650,1474h-140v-15.9h140V1474z"/>
		</g>
	</g>
	<g transform="matrix(1, 0, 0, 1, 161.25, 23.190778732299805)">
		<g>
			<path class="st3" d="M1650,1474h-140v-15.9h140V1474z"/>
		</g>
	</g>
	<g transform="matrix(1, 0, 0, 1, 161.25, 23.190778732299805)">
		<g>
			<path class="st2" d="M1379,1122.3v125.1h10v-125.1H1379z"/>
		</g>
	</g>
	<g transform="matrix(1, 0, 0, 1, 161.25, 23.190778732299805)">
		<g>
			<path class="st3" d="M1379,1122.3v125.1h10v-125.1H1379z"/>
		</g>
	</g>
	<g transform="matrix(1, 0, 0, 1, 161.25, 23.190778732299805)">
		<g>
			<path class="st3" d="M1389,1240.6c61.6,0,111.5-49.9,111.5-111.5H1389V1240.6z"/>
		</g>
	</g>
	<g transform="matrix(1, 0, 0, 1, 161.25, 23.190778732299805)">
		<g>
			<path class="st2" d="M1378.7,1247.4v-125.1h10.3v125.1H1378.7z"/>
		</g>
	</g>
	<g transform="matrix(1, 0, 0, 1, 161.25, 23.190778732299805)">
		<g>
			<path class="st3" d="M1378.7,1247.4v-125.1h10.3v125.1H1378.7z"/>
		</g>
	</g>
	<g transform="matrix(1, 0, 0, 1, 161.25, 23.190778732299805)">
		<g>
			<path class="st2" d="M1379,801.4v125.1h10V801.4H1379z"/>
		</g>
	</g>
	<g transform="matrix(1, 0, 0, 1, 161.25, 23.190778732299805)">
		<g>
			<path class="st3" d="M1379,801.4v125.1h10V801.4H1379z"/>
		</g>
	</g>
	<g transform="matrix(1, 0, 0, 1, 161.25, 23.190778732299805)">
		<g>
			<path class="st3" d="M1389,919.7c61.6,0,111.5-49.9,111.5-111.5H1389V919.7z"/>
		</g>
	</g>
	<g transform="matrix(1, 0, 0, 1, 161.25, 23.190778732299805)">
		<g>
			<path class="st2" d="M1378.7,926.5V801.4h10.3v125.1H1378.7z"/>
		</g>
	</g>
	<g transform="matrix(1, 0, 0, 1, 161.25, 23.190778732299805)">
		<g>
			<path class="st3" d="M1378.7,926.5V801.4h10.3v125.1H1378.7z"/>
		</g>
	</g>
	<g transform="matrix(1, 0, 0, 1, 161.25, 23.190778732299805)">
		<g>
			<path class="st2" d="M1379,663.9V789h10V663.9H1379z"/>
		</g>
	</g>
	<g transform="matrix(1, 0, 0, 1, 161.25, 23.190778732299805)">
		<g>
			<path class="st3" d="M1379,663.9V789h10V663.9H1379z"/>
		</g>
	</g>
	<g transform="matrix(1, 0, 0, 1, 161.25, 23.190778732299805)">
		<g>
			<path class="st3" d="M1389,670.7c61.6,0,111.5,49.9,111.5,111.5H1389V670.7z"/>
		</g>
	</g>
	<g transform="matrix(1, 0, 0, 1, 161.25, 23.190778732299805)">
		<g>
			<path class="st2" d="M1378.7,789V663.9h10.3V789H1378.7z"/>
		</g>
	</g>
	<g transform="matrix(1, 0, 0, 1, 161.25, 23.190778732299805)">
		<g>
			<path class="st3" d="M1378.7,789V663.9h10.3V789H1378.7z"/>
		</g>
	</g>
	<g transform="matrix(0.9375, 0, 0, 0.703125, 1704.25, 316.6907787322998)">
		<g transform="matrix(1, 0, 0, 1, -64, -64)">
			
				<image style="overflow:visible;enable-background:new    ;" width="128" height="128" xlink:href="2AB56C862B2A353E.PNG"  transform="matrix(1 0 0 1 0 -5.824000e-05)">
			</image>
		</g>
	</g>
	
		<g transform="matrix(-0.48437499999999817, -0.0000000423454090643, 0.00000003893045672041, -0.44531249999999833, 1673.75, 464.1907787322998)">
		<g transform="matrix(1, 0, 0, 1, -64, -64)">
			
				<image style="overflow:visible;enable-background:new    ;" width="128" height="128" xlink:href="2AB56C862B2A3539.PNG"  transform="matrix(1 0 0 1 0 2.009827e-05)">
			</image>
		</g>
	</g>
	
		<g transform="matrix(-0.48437499999999817, -0.0000000423454090643, 0.00000003893045672041, -0.44531249999999833, 1735.75, 464.1907787322998)">
		<g transform="matrix(1, 0, 0, 1, -64, -64)">
			
				<image style="overflow:visible;enable-background:new    ;" width="128" height="128" xlink:href="2AB56C862B2A353B.PNG"  transform="matrix(1 0 0 1 0 2.009827e-05)">
			</image>
		</g>
	</g>
	<g transform="matrix(1, 0, 0, 1, 161.25, 23.190778732299805)">
		<g>
			<path class="st2" d="M1379,344.5v125.1h10V344.5H1379z"/>
		</g>
	</g>
	<g transform="matrix(1, 0, 0, 1, 161.25, 23.190778732299805)">
		<g>
			<path class="st3" d="M1379,344.5v125.1h10V344.5H1379z"/>
		</g>
	</g>
	<g transform="matrix(1, 0, 0, 1, 161.25, 23.190778732299805)">
		<g>
			<path class="st3" d="M1389,462.8c61.5,0,111.4-49.9,111.4-111.4H1389V462.8z"/>
		</g>
	</g>
	<g transform="matrix(1, 0, 0, 1, 161.25, 23.190778732299805)">
		<g>
			<path class="st2" d="M1378.7,469.6V344.5h10.3v125.1H1378.7z"/>
		</g>
	</g>
	<g transform="matrix(1, 0, 0, 1, 161.25, 23.190778732299805)">
		<g>
			<path class="st3" d="M1378.7,469.6V344.5h10.3v125.1H1378.7z"/>
		</g>
	</g>
	<g transform="matrix(1, 0, 0, 1, 161.25, 23.190778732299805)">
		<g>
			<path class="st2" d="M1379,128.4V240h10V128.4H1379z"/>
		</g>
	</g>
	<g transform="matrix(1, 0, 0, 1, 161.25, 23.190778732299805)">
		<g>
			<path class="st3" d="M1379,128.4V240h10V128.4H1379z"/>
		</g>
	</g>
	<g transform="matrix(1, 0, 0, 1, 161.25, 23.190778732299805)">
		<g>
			<path class="st3" d="M1389,134.5c54.9,0,99.4,44.5,99.4,99.4H1389V134.5z"/>
		</g>
	</g>
	<g transform="matrix(1, 0, 0, 1, 161.25, 23.190778732299805)">
		<g>
			<path class="st2" d="M1379.8,240V128.4h9.2V240H1379.8z"/>
		</g>
	</g>
	<g transform="matrix(1, 0, 0, 1, 161.25, 23.190778732299805)">
		<g>
			<path class="st3" d="M1379.8,240V128.4h9.2V240H1379.8z"/>
		</g>
	</g>
	<g transform="matrix(1, 0, 0, 1, 161.25, 23.190778732299805)">
		<g>
			<path class="st2" d="M1379,9.7v111.6h10V9.7l0,0H1379z"/>
		</g>
	</g>
	<g transform="matrix(1, 0, 0, 1, 161.25, 23.190778732299805)">
		<g>
			<path class="st3" d="M1379,9.7v111.6h10V9.7l0,0H1379z"/>
		</g>
	</g>
	<g transform="matrix(1, 0, 0, 1, 161.25, 23.190778732299805)">
		<g>
			<path class="st3" d="M1389,15.8c54.9,0,99.4,44.5,99.4,99.4l-99.4,0V15.8z"/>
		</g>
	</g>
	<g transform="matrix(1, 0, 0, 1, 161.25, 23.190778732299805)">
		<g>
			<path class="st2" d="M1379.8,121.3V9.7l9.2,0v111.6H1379.8z"/>
		</g>
	</g>
	<g transform="matrix(1, 0, 0, 1, 161.25, 23.190778732299805)">
		<g>
			<path class="st3" d="M1379.8,121.3V9.7l9.2,0v111.6H1379.8z"/>
		</g>
	</g>
	<g transform="matrix(1, 0, 0, 1, 161.25, 23.190778732299805)">
		<g>
			<path class="st2" d="M315,9.2v125.1l0,0h10l0,0V9.2l0,0L315,9.2z"/>
		</g>
	</g>
	<g transform="matrix(1, 0, 0, 1, 161.25, 23.190778732299805)">
		<g>
			<path class="st3" d="M315,9.2v125.1l0,0h10l0,0V9.2l0,0L315,9.2z"/>
		</g>
	</g>
	<g transform="matrix(1, 0, 0, 1, 161.25, 23.190778732299805)">
		<g>
			<path class="st3" d="M315,127.5c-61.5,0-111.4-49.9-111.4-111.4L315,16V127.5z"/>
		</g>
	</g>
	<g transform="matrix(1, 0, 0, 1, 161.25, 23.190778732299805)">
		<g>
			<path class="st2" d="M325.3,9.2v125.1H315V9.2H325.3z"/>
		</g>
	</g>
	<g transform="matrix(1, 0, 0, 1, 161.25, 23.190778732299805)">
		<g>
			<path class="st3" d="M325.3,9.2v125.1H315V9.2H325.3z"/>
		</g>
	</g>
	
		<g transform="matrix(-0.4687499999999982, -0.00000004097942812675, 0.00000004371139000186, -0.4999999999999981, 609.25, 1200.6907787322998)">
		<g transform="matrix(1, 0, 0, 1, -64, -64)">
			
				<image style="overflow:visible;enable-background:new    ;" width="128" height="128" xlink:href="2AB56C862B2A3538.PNG"  transform="matrix(1 0 0 1 0 8.286485e-05)">
			</image>
		</g>
	</g>
	
		<g transform="matrix(-0.4687499999999982, -0.00000004097942812675, 0.00000004371139000186, -0.4999999999999981, 433.75, 1200.6907787322998)">
		<g transform="matrix(1, 0, 0, 1, -64, -64)">
			
				<image style="overflow:visible;enable-background:new    ;" width="128" height="128" xlink:href="2AB56C862B2A3546.PNG"  transform="matrix(1 0 0 1 0 8.286485e-05)">
			</image>
		</g>
	</g>
	
		<g transform="matrix(-0.4687499999999982, -0.00000004097942812675, 0.00000004371139000186, -0.4999999999999981, 373.75, 1200.6907787322998)">
		<g transform="matrix(1, 0, 0, 1, -64, -64)">
			
				<image style="overflow:visible;enable-background:new    ;" width="128" height="128" xlink:href="2AB56C862B2A3549.PNG"  transform="matrix(1 0 0 1 0 8.286485e-05)">
			</image>
		</g>
	</g>
	
		<g transform="matrix(-0.4687499999999982, -0.00000004097942812675, 0.00000004371139000186, -0.4999999999999981, 313.75, 1200.6907787322998)">
		<g transform="matrix(1, 0, 0, 1, -64, -64)">
			
				<image style="overflow:visible;enable-background:new    ;" width="128" height="128" xlink:href="2AB56C862B2A354A.PNG"  transform="matrix(1 0 0 1 0 8.286485e-05)">
			</image>
		</g>
	</g>
	
		<g transform="matrix(-0.40624999999999845, -0.00000003551550437651, 0.00000004371139000186, -0.4999999999999981, 197.75, 1200.6907787322998)">
		<g transform="matrix(1, 0, 0, 1, -64, -64)">
			
				<image style="overflow:visible;enable-background:new    ;" width="128" height="128" xlink:href="2AB56C862B2A3548.PNG"  transform="matrix(1 0 0 1 0 8.286485e-05)">
			</image>
		</g>
	</g>
	
		<g transform="matrix(-0.4687499999999982, -0.00000004097942812675, 0.00000004371139000186, -0.4999999999999981, 253.75, 1200.6907787322998)">
		<g transform="matrix(1, 0, 0, 1, -64, -64)">
			
				<image style="overflow:visible;enable-background:new    ;" width="128" height="128" xlink:href="2C38AF643D19B1BD.PNG"  transform="matrix(1 0 0 1 0 8.286485e-05)">
			</image>
		</g>
	</g>
	
		<g transform="matrix(0.00000000558978771319, -0.46874999999999994, 0.49999999999999994, 0.0000000059624402274, 203.75, 1022.6907787322998)">
		<g transform="matrix(1, 0, 0, 1, -64, -64)">
			
				<image style="overflow:visible;enable-background:new    ;" width="128" height="128" xlink:href="2C38AF643D19B1B3.PNG"  transform="matrix(1 0 0 1 8.920325e-05 0)">
			</image>
		</g>
	</g>
	
		<g transform="matrix(0.00000000558978771319, -0.46874999999999994, 0.49999999999999994, 0.0000000059624402274, 203.75, 1142.6907787322998)">
		<g transform="matrix(1, 0, 0, 1, -64, -64)">
			
				<image style="overflow:visible;enable-background:new    ;" width="128" height="128" xlink:href="2C38AF643D19B1B5.PNG"  transform="matrix(1 0 0 1 8.920325e-05 0)">
			</image>
		</g>
	</g>
	
		<g transform="matrix(0.00000000558978771319, -0.46874999999999994, 0.49999999999999994, 0.0000000059624402274, 203.75, 1082.6907787322998)">
		<g transform="matrix(1, 0, 0, 1, -64, -64)">
			
				<image style="overflow:visible;enable-background:new    ;" width="128" height="128" xlink:href="2C38AF643D19B1B7.PNG"  transform="matrix(1 0 0 1 8.920325e-05 0)">
			</image>
		</g>
	</g>
	
		<g transform="matrix(0.00000001117957542638, -0.9374999999999999, 0.5156249999999999, 0.00000000614876648451, 204.75, 932.6907787322998)">
		<g transform="matrix(1, 0, 0, 1, -64, -64)">
			
				<image style="overflow:visible;enable-background:new    ;" width="128" height="128" xlink:href="2C38AF643D19B1B4.PNG"  transform="matrix(1 0 0 1 4.461434e-05 0)">
			</image>
		</g>
	</g>
	
		<g transform="matrix(-0.0000000751289515657, 1.7187499999999982, -0.7812499999999992, -0.00000003414952343896, 442.75, 934.6907787322998)">
		<g transform="matrix(1, 0, 0, 1, -64, -64)">
			
				<image style="overflow:visible;enable-background:new    ;" width="128" height="128" xlink:href="2C38AF643D19B1AC.PNG"  transform="matrix(1 0 0 1 -2.283453e-05 -6.154564e-06)">
			</image>
		</g>
	</g>
	
		<g transform="matrix(1.8749999999999714, 0.00000032783541215053, -0.00000021855694143369, 1.249999999999981, 371.75, 557.6907787322998)">
		<g transform="matrix(1, 0, 0, 1, -64, -64)">
			
				<image style="overflow:visible;enable-background:new    ;" width="128" height="128" xlink:href="2C38AF643D19B1AD.PNG"  transform="matrix(1 0 0 1 0 -3.314594e-05)">
			</image>
		</g>
	</g>
	
		<g transform="matrix(-0.00000004780933281454, 1.093749999999999, -0.7031249999999993, -0.00000003073457109506, 444.25, 708.1907787322998)">
		<g transform="matrix(1, 0, 0, 1, -64, -64)">
			
				<image style="overflow:visible;enable-background:new    ;" width="128" height="128" xlink:href="2C38AF643D19B1AF.PNG"  transform="matrix(1 0 0 1 -3.608266e-05 0)">
			</image>
		</g>
	</g>
	
		<g transform="matrix(0.00000001863262571063, -1.5624999999999998, 0.46874999999999994, 0.00000000558978771319, 201.75, 674.6907787322998)">
		<g transform="matrix(1, 0, 0, 1, -64, -64)">
			
				<image style="overflow:visible;enable-background:new    ;" width="128" height="128" xlink:href="2C38AF643D19B1AB.PNG"  transform="matrix(1 0 0 1 2.674571e-05 0)">
			</image>
		</g>
	</g>
	
		<g transform="matrix(-0.00000004268690429869, 0.976562499999999, -0.46874999999999956, -0.00000002048971406337, 317.75, 678.1907787322998)">
		<g transform="matrix(1, 0, 0, 1, -64, -64)">
			
				<image style="overflow:visible;enable-background:new    ;" width="128" height="128" xlink:href="2C38AF643D19B1D3.PNG"  transform="matrix(1 0 0 1 -7.385202e-05 -5.828184e-06)">
			</image>
		</g>
	</g>
	
		<g transform="matrix(-0.9374999999999964, -0.00000008195885625349, 0.00000004371139000186, -0.4999999999999981, 519.25, 1200.6907787322998)">
		<g transform="matrix(1, 0, 0, 1, -64, -64)">
			
				<image style="overflow:visible;enable-background:new    ;" width="128" height="128" xlink:href="2C38AF643D19B1C8.PNG"  transform="matrix(1 0 0 1 0 8.286485e-05)">
			</image>
		</g>
	</g>
	
		<g transform="matrix(0.00000001863262571063, -1.5624999999999998, 0.46874999999999994, 0.00000000558978771319, 1580.25, 1377.1907787322998)">
		<g transform="matrix(1, 0, 0, 1, -64, -64)">
			
				<image style="overflow:visible;enable-background:new    ;" width="128" height="128" xlink:href="2C38AF643D19B1CB.PNG"  transform="matrix(1 0 0 1 2.674571e-05 0)">
			</image>
		</g>
	</g>
	
		<g transform="matrix(-1.562499999999994, -0.00000013659809375582, 0.00000004097942812675, -0.4687499999999982, 1650.25, 1103.6907787322998)">
		<g transform="matrix(1, 0, 0, 1, -64, -64)">
			
				<image style="overflow:visible;enable-background:new    ;" width="128" height="128" xlink:href="2C38AF643D19B1C9.PNG"  transform="matrix(1 0 0 1 0 8.838918e-05)">
			</image>
		</g>
	</g>
	
		<g transform="matrix(-1.562499999999994, -0.00000013659809375582, 0.00000004097942812675, -0.4687499999999982, 1759.25, 784.6907787322998)">
		<g transform="matrix(1, 0, 0, 1, -64, -64)">
			
				<image style="overflow:visible;enable-background:new    ;" width="128" height="128" xlink:href="2C38AF643D19B1C7.PNG"  transform="matrix(1 0 0 1 0 8.838918e-05)">
			</image>
		</g>
	</g>
	<g transform="matrix(1.234375, 0, 0, 1.625, 1716.75, 606.1907787322998)">
		<g transform="matrix(1, 0, 0, 1, -64, -64)">
			
				<image style="overflow:visible;enable-background:new    ;" width="128" height="128" xlink:href="2C38AF643D19B1F8.PNG"  transform="matrix(1 0 0 1 0 -2.549688e-05)">
			</image>
		</g>
	</g>
	<g transform="matrix(1.234375, 0, 0, 1.625, 1718.75, 928.6907787322998)">
		<g transform="matrix(1, 0, 0, 1, -64, -64)">
			
				<image style="overflow:visible;enable-background:new    ;" width="128" height="128" xlink:href="2C38AF643D19B1FB.PNG"  transform="matrix(1 0 0 1 0 -2.549688e-05)">
			</image>
		</g>
	</g>
	
		<g transform="matrix(-0.00000005395624703355, 1.2343749999999987, -1.6249999999999984, -0.00000007103100875303, 1755.25, 1321.6907787322998)">
		<g transform="matrix(1, 0, 0, 1, -64, -64)">
			
				<image style="overflow:visible;enable-background:new    ;" width="128" height="128" xlink:href="2C38AF643D19B1F9.PNG"  transform="matrix(1 0 0 1 -2.988268e-05 0)">
			</image>
		</g>
	</g>
	<g transform="matrix(0.78125, 0, 0, 0.4296875, 1769.75, 1171.1907787322998)">
		<g transform="matrix(1, 0, 0, 1, -64, -64)">
			
				<image style="overflow:visible;enable-background:new    ;" width="128" height="128" xlink:href="2C38AF643D19B1FF.PNG"  transform="matrix(1 0 0 1 0 -2.195180e-05)">
			</image>
		</g>
	</g>
	
		<g transform="matrix(-0.00000001365980937558, 0.31249999999999967, -0.5468749999999994, -0.00000002390466640727, 1665.75, 204.6907787322998)">
		<g transform="matrix(1, 0, 0, 1, -64, -64)">
			
				<image style="overflow:visible;enable-background:new    ;" width="128" height="128" xlink:href="2C38AF643D19B1FA.PNG"  transform="matrix(1 0 0 1 -1.285162e-04 0)">
			</image>
		</g>
	</g>
	
		<g transform="matrix(-0.00000002048971406337, 0.46874999999999956, -0.4921874999999995, -0.00000002151419976654, 1827.75, 62.690778732299805)">
		<g transform="matrix(1, 0, 0, 1, -64, -64)">
			
				<image style="overflow:visible;enable-background:new    ;" width="128" height="128" xlink:href="2C38AF643D19B1C5.PNG"  transform="matrix(1 0 0 1 -8.600385e-05 6.235149e-05)">
			</image>
		</g>
	</g>
	
		<g transform="matrix(-0.00000002048971406337, 0.46874999999999956, -0.4921874999999995, -0.00000002151419976654, 1827.75, 123.1907787322998)">
		<g transform="matrix(1, 0, 0, 1, -64, -64)">
			
				<image style="overflow:visible;enable-background:new    ;" width="128" height="128" xlink:href="2C38AF643D19B21F.PNG"  transform="matrix(1 0 0 1 -8.600385e-05 6.235149e-05)">
			</image>
		</g>
	</g>
	
		<g transform="matrix(-0.00000001878223789143, 0.42968749999999956, -0.4999999999999995, -0.00000002185569500093, 1827.25, 180.6907787322998)">
		<g transform="matrix(1, 0, 0, 1, -64, -64)">
			
				<image style="overflow:visible;enable-background:new    ;" width="128" height="128" xlink:href="2C38AF643D19B21D.PNG"  transform="matrix(1 0 0 1 -1.929877e-05 0)">
			</image>
		</g>
	</g>
	
		<g transform="matrix(-0.00000001878223789143, 0.42968749999999956, -0.4999999999999995, -0.00000002185569500093, 1827.25, 233.1907787322998)">
		<g transform="matrix(1, 0, 0, 1, -64, -64)">
			
				<image style="overflow:visible;enable-background:new    ;" width="128" height="128" xlink:href="2C38AF643D19B223.PNG"  transform="matrix(1 0 0 1 -1.929877e-05 0)">
			</image>
		</g>
	</g>
	<g transform="matrix(1, 0, 0, 1, 161.25, 23.190778732299805)">
		<g>
			<path class="st2" d="M753.9,234v20h200v-20H753.9z"/>
		</g>
	</g>
	<g transform="matrix(1, 0, 0, 1, 161.25, 23.190778732299805)">
		<g>
			<path class="st3" d="M753.9,234v20h200v-20H753.9z"/>
		</g>
	</g>
	<g transform="matrix(1, 0, 0, 1, 161.25, 23.190778732299805)">
		<g>
			<path class="st2" d="M953.9,254l-200,0v-20l200,0V254z"/>
		</g>
	</g>
	<g transform="matrix(1, 0, 0, 1, 161.25, 23.190778732299805)">
		<g>
			<path class="st3" d="M953.9,254l-200,0v-20l200,0V254z"/>
		</g>
	</g>
	<g transform="matrix(1, 0, 0, 1, 161.25, 23.190778732299805)">
		<g>
			<path class="st2" d="M1210,918.7v200h20v-200H1210z"/>
		</g>
	</g>
	<g transform="matrix(1, 0, 0, 1, 161.25, 23.190778732299805)">
		<g>
			<path class="st3" d="M1210,918.7v200h20v-200H1210z"/>
		</g>
	</g>
	<g transform="matrix(1, 0, 0, 1, 161.25, 23.190778732299805)">
		<g>
			<path class="st2" d="M1210,1118.7l0-200h20v200H1210z"/>
		</g>
	</g>
	<g transform="matrix(1, 0, 0, 1, 161.25, 23.190778732299805)">
		<g>
			<path class="st3" d="M1210,1118.7l0-200h20v200H1210z"/>
		</g>
	</g>
	<g transform="matrix(1, 0, 0, 1, 161.25, 23.190778732299805)">
		<g>
			<path class="st2" d="M1210,468.4v200h20v-200H1210z"/>
		</g>
	</g>
	<g transform="matrix(1, 0, 0, 1, 161.25, 23.190778732299805)">
		<g>
			<path class="st3" d="M1210,468.4v200h20v-200H1210z"/>
		</g>
	</g>
	<g transform="matrix(1, 0, 0, 1, 161.25, 23.190778732299805)">
		<g>
			<path class="st2" d="M1210,668.4l0-200h20l0,200H1210z"/>
		</g>
	</g>
	<g transform="matrix(1, 0, 0, 1, 161.25, 23.190778732299805)">
		<g>
			<path class="st3" d="M1210,668.4l0-200h20l0,200H1210z"/>
		</g>
	</g>
	<g transform="matrix(1, 0, 0, 1, 161.25, 23.190778732299805)">
		<g>
			<path class="st2" d="M478,708.9v200l0,0h20l0,0v-200H478z"/>
		</g>
	</g>
	<g transform="matrix(1, 0, 0, 1, 161.25, 23.190778732299805)">
		<g>
			<path class="st3" d="M478,708.9v200l0,0h20l0,0v-200H478z"/>
		</g>
	</g>
	<g transform="matrix(1, 0, 0, 1, 161.25, 23.190778732299805)">
		<g>
			<path class="st2" d="M498,708.9v200l-20,0v-200H498z"/>
		</g>
	</g>
	<g transform="matrix(1, 0, 0, 1, 161.25, 23.190778732299805)">
		<g>
			<path class="st3" d="M498,708.9v200l-20,0v-200H498z"/>
		</g>
	</g>
	<g transform="matrix(1, 0, 0, 1, 161.25, 23.190778732299805)">
		<g>
			<path class="st2" d="M-10,183.8l0,180h20l0-180H-10z"/>
		</g>
	</g>
	<g transform="matrix(1, 0, 0, 1, 161.25, 23.190778732299805)">
		<g>
			<path class="st3" d="M-10,183.8l0,180h20l0-180H-10z"/>
		</g>
	</g>
	<g transform="matrix(1, 0, 0, 1, 161.25, 23.190778732299805)">
		<g>
			<path class="st2" d="M-10,363.8l0-180h20l0,180H-10z"/>
		</g>
	</g>
	<g transform="matrix(1, 0, 0, 1, 161.25, 23.190778732299805)">
		<g>
			<path class="st3" d="M-10,363.8l0-180h20l0,180H-10z"/>
		</g>
	</g>
	<g transform="matrix(1, 0, 0, 1, 161.25, 23.190778732299805)">
		<g>
			<path class="st2" d="M1254.6,1454v20h100v-20H1254.6z"/>
		</g>
	</g>
	<g transform="matrix(1, 0, 0, 1, 161.25, 23.190778732299805)">
		<g>
			<path class="st3" d="M1254.6,1454v20h100v-20H1254.6z"/>
		</g>
	</g>
	<g transform="matrix(1, 0, 0, 1, 161.25, 23.190778732299805)">
		<g>
			<path class="st3" d="M1351.3,1454c0-52.2-42.3-94.5-94.5-94.5v94.5H1351.3z"/>
		</g>
	</g>
	<g transform="matrix(1, 0, 0, 1, 161.25, 23.190778732299805)">
		<g>
			<path class="st2" d="M1354.6,1474h-100v-20h100V1474z"/>
		</g>
	</g>
	<g transform="matrix(1, 0, 0, 1, 161.25, 23.190778732299805)">
		<g>
			<path class="st3" d="M1354.6,1474h-100v-20h100V1474z"/>
		</g>
	</g>
	<g transform="matrix(1, 0, 0, 1, 161.25, 23.190778732299805)">
		<g>
			<path class="st2" d="M1698,885.6v140h20v-140H1698z"/>
		</g>
	</g>
	<g transform="matrix(1, 0, 0, 1, 161.25, 23.190778732299805)">
		<g>
			<path class="st3" d="M1698,885.6v140h20v-140H1698z"/>
		</g>
	</g>
	<g transform="matrix(1, 0, 0, 1, 161.25, 23.190778732299805)">
		<g>
			<path class="st3" d="M1698,955c-37.2,0-67.3-30.2-67.3-67.3h67.3V955z"/>
		</g>
	</g>
	<g transform="matrix(1, 0, 0, 1, 161.25, 23.190778732299805)">
		<g>
			<path class="st3" d="M1698,956.1c-37.2,0-67.3,30.2-67.3,67.3h67.3V956.1z"/>
		</g>
	</g>
	<g transform="matrix(1, 0, 0, 1, 161.25, 23.190778732299805)">
		<g>
			<path class="st2" d="M1718,885.6l0,140h-20v-140H1718z"/>
		</g>
	</g>
	<g transform="matrix(1, 0, 0, 1, 161.25, 23.190778732299805)">
		<g>
			<path class="st3" d="M1718,885.6l0,140h-20v-140H1718z"/>
		</g>
	</g>
	<g transform="matrix(1, 0, 0, 1, 161.25, 23.190778732299805)">
		<g>
			<path class="st2" d="M1698,565.1v140h20v-140H1698z"/>
		</g>
	</g>
	<g transform="matrix(1, 0, 0, 1, 161.25, 23.190778732299805)">
		<g>
			<path class="st3" d="M1698,565.1v140h20v-140H1698z"/>
		</g>
	</g>
	<g transform="matrix(1, 0, 0, 1, 161.25, 23.190778732299805)">
		<g>
			<path class="st3" d="M1698,634.6c-37.2,0-67.3-30.2-67.3-67.3h67.3V634.6z"/>
		</g>
	</g>
	<g transform="matrix(1, 0, 0, 1, 161.25, 23.190778732299805)">
		<g>
			<path class="st3" d="M1698,635.6c-37.2,0-67.3,30.2-67.3,67.3h67.3V635.6z"/>
		</g>
	</g>
	<g transform="matrix(1, 0, 0, 1, 161.25, 23.190778732299805)">
		<g>
			<path class="st2" d="M1718,565.1l0,140h-20v-140H1718z"/>
		</g>
	</g>
	<g transform="matrix(1, 0, 0, 1, 161.25, 23.190778732299805)">
		<g>
			<path class="st3" d="M1718,565.1l0,140h-20v-140H1718z"/>
		</g>
	</g>
	<g transform="matrix(1, 0, 0, 1, 161.25, 23.190778732299805)">
		<g>
			<path class="st2" d="M1698,293.1v132h20v-132H1698z"/>
		</g>
	</g>
	<g transform="matrix(1, 0, 0, 1, 161.25, 23.190778732299805)">
		<g>
			<path class="st3" d="M1698,293.1v132h20v-132H1698z"/>
		</g>
	</g>
	<g transform="matrix(1, 0, 0, 1, 161.25, 23.190778732299805)">
		<g>
			<path class="st3" d="M1698,358.6c-35.1,0-63.5-28.4-63.5-63.5h63.5V358.6z"/>
		</g>
	</g>
	<g transform="matrix(1, 0, 0, 1, 161.25, 23.190778732299805)">
		<g>
			<path class="st3" d="M1698,359.6c-35.1,0-63.5,28.4-63.5,63.5l63.5,0V359.6z"/>
		</g>
	</g>
	<g transform="matrix(1, 0, 0, 1, 161.25, 23.190778732299805)">
		<g>
			<path class="st2" d="M1718,293.1v132h-20v-132H1718z"/>
		</g>
	</g>
	<g transform="matrix(1, 0, 0, 1, 161.25, 23.190778732299805)">
		<g>
			<path class="st3" d="M1718,293.1v132h-20v-132H1718z"/>
		</g>
	</g>
	<g transform="matrix(1, 0, 0, 1, 161.25, 23.190778732299805)">
		<g>
			<path class="st2" d="M1698,39.5L1698,39.5L1698,39.5L1698,39.5z M1698,39.5v91h20v-91l0,0L1698,39.5z"/>
		</g>
	</g>
	<g transform="matrix(1, 0, 0, 1, 161.25, 23.190778732299805)">
		<g>
			<path class="st3" d="M1698,39.5L1698,39.5L1698,39.5L1698,39.5z M1698,39.5v91h20v-91l0,0L1698,39.5z"/>
		</g>
	</g>
	<g transform="matrix(1, 0, 0, 1, 161.25, 23.190778732299805)">
		<g>
			<path class="st3" d="M1698,127.5c-47.5,0-86-38.5-86-86l86,0V127.5z"/>
		</g>
	</g>
	<g transform="matrix(1, 0, 0, 1, 161.25, 23.190778732299805)">
		<g>
			<path class="st2" d="M1718,39.5v91h-20v-91H1718z"/>
		</g>
	</g>
	<g transform="matrix(1, 0, 0, 1, 161.25, 23.190778732299805)">
		<g>
			<path class="st3" d="M1718,39.5v91h-20v-91H1718z"/>
		</g>
	</g>
	<g transform="matrix(1, 0, 0, 1, 161.25, 23.190778732299805)">
		<g>
			<path class="st2" d="M287.9,1209.1v20h140v-20H287.9z"/>
		</g>
	</g>
	<g transform="matrix(1, 0, 0, 1, 161.25, 23.190778732299805)">
		<g>
			<path class="st3" d="M287.9,1209.1v20h140v-20H287.9z"/>
		</g>
	</g>
	<g transform="matrix(1, 0, 0, 1, 161.25, 23.190778732299805)">
		<g>
			<path class="st3" d="M358.5,1209.1c0-37.2,30.2-67.3,67.3-67.3v67.3H358.5z"/>
		</g>
	</g>
	<g transform="matrix(1, 0, 0, 1, 161.25, 23.190778732299805)">
		<g>
			<path class="st3" d="M357.4,1209.1c0-37.2-30.2-67.3-67.3-67.3l0,67.3H357.4z"/>
		</g>
	</g>
	<g transform="matrix(1, 0, 0, 1, 161.25, 23.190778732299805)">
		<g>
			<path class="st2" d="M427.9,1229.1h-140v-20h140V1229.1z"/>
		</g>
	</g>
	<g transform="matrix(1, 0, 0, 1, 161.25, 23.190778732299805)">
		<g>
			<path class="st3" d="M427.9,1229.1h-140v-20h140V1229.1z"/>
		</g>
	</g>
	<g transform="matrix(1, 0, 0, 1, 161.25, 23.190778732299805)">
		<g>
			<path class="st2" d="M-10,968.7l0,140h20l0-140H-10z"/>
		</g>
	</g>
	<g transform="matrix(1, 0, 0, 1, 161.25, 23.190778732299805)">
		<g>
			<path class="st3" d="M-10,968.7l0,140h20l0-140H-10z"/>
		</g>
	</g>
	<g transform="matrix(1, 0, 0, 1, 161.25, 23.190778732299805)">
		<g>
			<path class="st3" d="M10,1039.2c37.2,0,67.3,30.2,67.3,67.3H10L10,1039.2z"/>
		</g>
	</g>
	<g transform="matrix(1, 0, 0, 1, 161.25, 23.190778732299805)">
		<g>
			<path class="st3" d="M10,1038.1c37.2,0,67.3-30.2,67.3-67.3H10L10,1038.1z"/>
		</g>
	</g>
	<g transform="matrix(1, 0, 0, 1, 161.25, 23.190778732299805)">
		<g>
			<path class="st2" d="M-10,1108.7l0-140h20l0,140H-10z"/>
		</g>
	</g>
	<g transform="matrix(1, 0, 0, 1, 161.25, 23.190778732299805)">
		<g>
			<path class="st3" d="M-10,1108.7l0-140h20l0,140H-10z"/>
		</g>
	</g>
	
		<g transform="matrix(-0.00000003414952343896, 0.7812499999999992, -0.07031249999999993, -0.00000000307345710951, 634.75, 781.6907787322998)">
		<g transform="matrix(1, 0, 0, 1, -64, -64)">
			
				<image style="overflow:visible;enable-background:new    ;" width="128" height="128" xlink:href="2C38AF643D19B225.PNG"  transform="matrix(1 0 0 1 -5.278172e-05 -4.861982e-04)">
			</image>
		</g>
	</g>
	
		<g transform="matrix(-0.00000003414952343896, 0.7812499999999992, -0.07031249999999993, -0.00000000307345710951, 634.75, 881.6907787322998)">
		<g transform="matrix(1, 0, 0, 1, -64, -64)">
			
				<image style="overflow:visible;enable-background:new    ;" width="128" height="128" xlink:href="2C38AF643D19B227.PNG"  transform="matrix(1 0 0 1 -5.278172e-05 -4.861982e-04)">
			</image>
		</g>
	</g>
	
		<g transform="matrix(-0.00000003414952343896, 0.7812499999999992, -0.07031249999999993, -0.00000000307345710951, 1395.75, 642.6907787322998)">
		<g transform="matrix(1, 0, 0, 1, -64, -64)">
			
				<image style="overflow:visible;enable-background:new    ;" width="128" height="128" xlink:href="2C38AF643D19B222.PNG"  transform="matrix(1 0 0 1 -5.278173e-05 -4.861982e-04)">
			</image>
		</g>
	</g>
	
		<g transform="matrix(-0.00000003414952343896, 0.7812499999999992, -0.07031249999999993, -0.00000000307345710951, 1395.75, 542.6907787322998)">
		<g transform="matrix(1, 0, 0, 1, -64, -64)">
			
				<image style="overflow:visible;enable-background:new    ;" width="128" height="128" xlink:href="2C38AF643D19B221.PNG"  transform="matrix(1 0 0 1 -5.278173e-05 -4.861982e-04)">
			</image>
		</g>
	</g>
	
		<g transform="matrix(-0.00000003414952343896, 0.7812499999999992, -0.07031249999999993, -0.00000000307345710951, 1395.75, 1091.6907787322998)">
		<g transform="matrix(1, 0, 0, 1, -64, -64)">
			
				<image style="overflow:visible;enable-background:new    ;" width="128" height="128" xlink:href="2C38AF643D19B22D.PNG"  transform="matrix(1 0 0 1 -5.278172e-05 -4.861982e-04)">
			</image>
		</g>
	</g>
	
		<g transform="matrix(-0.00000003414952343896, 0.7812499999999992, -0.07031249999999993, -0.00000000307345710951, 1395.75, 991.6907787322998)">
		<g transform="matrix(1, 0, 0, 1, -64, -64)">
			
				<image style="overflow:visible;enable-background:new    ;" width="128" height="128" xlink:href="2C38AF643D19B22F.PNG"  transform="matrix(1 0 0 1 -5.278172e-05 -4.861982e-04)">
			</image>
		</g>
	</g>
	
		<g transform="matrix(0.781249999999988, 0.00000013659808839606, -0.00000001229382795564, 0.07031249999999892, 964.75, 252.6907787322998)">
		<g transform="matrix(1, 0, 0, 1, -64, -64)">
			
				<image style="overflow:visible;enable-background:new    ;" width="128" height="128" xlink:href="2C38AF643D19B220.PNG"  transform="matrix(1 0 0 1 0 -1.048060e-03)">
			</image>
		</g>
	</g>
	<g transform="matrix(0.78125, 0, 0, 0.0703125, 1064.75, 252.6907787322998)">
		<g transform="matrix(1, 0, 0, 1, -64, -64)">
			
				<image style="overflow:visible;enable-background:new    ;" width="128" height="128" xlink:href="2C38AF643D19B20E.PNG"  transform="matrix(1 0 0 1 0 -1.048060e-03)">
			</image>
		</g>
	</g>
	
		<g transform="matrix(-0.00000003073457109506, 0.7031249999999993, -0.07031249999999993, -0.00000000307345710951, 176.25, 251.6907787322998)">
		<g transform="matrix(1, 0, 0, 1, -64, -64)">
			
				<image style="overflow:visible;enable-background:new    ;" width="128" height="128" xlink:href="2C38AF643D19B20D.PNG"  transform="matrix(1 0 0 1 -5.901442e-05 -4.830898e-04)">
			</image>
		</g>
	</g>
	
		<g transform="matrix(-0.00000003073457109506, 0.7031249999999993, -0.07031249999999993, -0.00000000307345710951, 176.25, 341.6907787322998)">
		<g transform="matrix(1, 0, 0, 1, -64, -64)">
			
				<image style="overflow:visible;enable-background:new    ;" width="128" height="128" xlink:href="2C38AF643D19B202.PNG"  transform="matrix(1 0 0 1 -5.796025e-05 -4.830898e-04)">
			</image>
		</g>
	</g>
</g>
</svg>
