<?xml version="1.0" encoding="utf-8"?>
<!-- Generator: Adobe Illustrator 22.1.0, SVG Export Plug-In . SVG Version: 6.00 Build 0)  -->
<svg version="1.1" id="Layer_1" xmlns="http://www.w3.org/2000/svg" xmlns:xlink="http://www.w3.org/1999/xlink" x="0px" y="0px"
	 viewBox="0 0 850.4 1133.9" style="enable-background:new 0 0 850.4 1133.9;" xml:space="preserve">
<style type="text/css">
	.st0{fill:#FFFFFF;}
	.st1{fill:#FFFFFF;stroke:#000000;stroke-width:2.8346;stroke-miterlimit:10;}
	.st2{stroke:#000000;stroke-width:2.8346;stroke-miterlimit:10;}
	.st3{fill:none;stroke:#000000;stroke-width:2.835;stroke-miterlimit:10;}
	.st4{fill:none;stroke:#F4AB0B;stroke-width:2.835;stroke-linecap:square;stroke-miterlimit:10;}
	.st5{fill:none;stroke:#1D72EF;stroke-width:2.835;stroke-linecap:square;stroke-miterlimit:10;}
	.st6{fill:none;stroke:#CCBA0E;stroke-width:2.835;stroke-linecap:square;stroke-miterlimit:10;}
	.st7{fill:none;stroke:#F2E10C;stroke-width:2.835;stroke-linecap:square;stroke-miterlimit:10;}
	.st8{display:none;}
	.st9{display:inline;fill:#B7DAF9;}
	.st10{font-family:'ArialMT';}
	.st11{font-size:12px;}
	.st12{fill:none;stroke:#EA911B;stroke-width:2.835;stroke-linecap:square;stroke-miterlimit:10;}
</style>
<g id="Structure">
	<g>
		<polygon class="st0" points="547.6,631.3 547.6,285.4 302.7,285.4 302.7,631.3 167.2,631.3 167.2,219.1 683.1,219.1 683.1,631.3 
					"/>
		<path d="M681.7,220.5v66.3v343h-66.3H549v-343V284h-2.8h-34.6H304.1h-2.8v2.8v343H235h-66.3v-343v-66.3h343L681.7,220.5
			 M684.5,217.7H511.6H165.8v69.2v345.8H235h69.2V286.8h207.5h34.6v345.8h69.2h69.2V286.8v-69.1L684.5,217.7L684.5,217.7z"/>
	</g>
	<g>
		<polygon class="st1" points="232.8,289.7 237,289.7 237,289.7 		"/>
		<polygon class="st2" points="237.7,289.7 232.1,289.7 232.1,289.7 		"/>
	</g>
</g>
<g id="Ground_floor">
	<g>
		<rect x="586.7" y="497.9" class="st0" width="96.3" height="133.3"/>
		<path d="M681.7,499.3v130.5h-93.5V499.3H681.7 M684.5,496.5h-99.2v136.2h99.2V496.5L684.5,496.5z"/>
	</g>
	<g>
		<rect x="586.7" y="363.8" class="st0" width="96.3" height="133.3"/>
		<path d="M681.7,365.2v130.5h-93.5V365.2H681.7 M684.5,362.4h-99.2v136.2h99.2V362.4L684.5,362.4z"/>
	</g>
	<g>
		<rect x="586.7" y="287.9" class="st0" width="96.3" height="76"/>
		<path d="M681.7,289.3v73.2h-93.5v-73.2H681.7 M684.5,286.4h-99.2v78.9h99.2V286.4L684.5,286.4z"/>
	</g>
	<g>
		<rect x="586.7" y="249.8" class="st0" width="33.9" height="38"/>
		<path d="M619.2,251.2v35.2h-31.1v-35.2H619.2 M622.1,248.4h-36.7v40.9h36.7V248.4L622.1,248.4z"/>
	</g>
	<g>
		<rect x="620.8" y="249.8" class="st0" width="62.3" height="38"/>
		<path d="M681.7,251.2v35.2h-59.4v-35.2H681.7 M684.5,248.4h-65.1v40.9h65.1V248.4L684.5,248.4z"/>
	</g>
	<g>
		<path class="st3" d="M263.6,219.1h-96.4v133.4h96.4V219.1L263.6,219.1z"/>
	</g>
	<g>
		<line class="st4" x1="382.6" y1="285.4" x2="467.6" y2="285.4"/>
	</g>
	<g>
		<line class="st4" x1="547.6" y1="542.5" x2="547.6" y2="627.5"/>
	</g>
	<g>
		<line class="st4" x1="547.6" y1="347.7" x2="547.6" y2="432.7"/>
	</g>
	<g>
		<line class="st4" x1="302.7" y1="476.7" x2="302.7" y2="561.7"/>
	</g>
	<g>
		<line class="st4" x1="302.7" y1="310.7" x2="302.7" y2="395.8"/>
	</g>
	<g>
		<line class="st5" x1="586.8" y1="465.1" x2="586.8" y2="491.5"/>
	</g>
	<g>
		<line class="st5" x1="586.8" y1="503.8" x2="586.8" y2="530.2"/>
	</g>
	<g>
		<line class="st5" x1="586.8" y1="294.1" x2="586.8" y2="320.5"/>
	</g>
	<g>
		<line class="st5" x1="616.9" y1="249.8" x2="590.5" y2="249.8"/>
	</g>
	<g>
		<line class="st5" x1="650.7" y1="249.8" x2="624.3" y2="249.8"/>
	</g>
	<g>
		<line class="st5" x1="263.6" y1="223.4" x2="263.6" y2="249.8"/>
	</g>
	<g>
		<line class="st6" x1="263.6" y1="290.3" x2="263.6" y2="347"/>
	</g>
	<g>
		<line class="st4" x1="552.1" y1="631.3" x2="581.9" y2="631.3"/>
	</g>
	<g>
		<line class="st4" x1="625.2" y1="631.3" x2="676.2" y2="631.3"/>
	</g>
	<g>
		<line class="st7" x1="173.8" y1="631.3" x2="224.8" y2="631.3"/>
	</g>
	<g>
		<line class="st6" x1="243.7" y1="352.5" x2="187" y2="352.5"/>
	</g>
	<g>
		<line class="st6" x1="586.8" y1="326.5" x2="586.8" y2="357.3"/>
	</g>
	<g>
		<line class="st7" x1="683.2" y1="434.8" x2="683.2" y2="491.5"/>
	</g>
	<g>
		<line class="st7" x1="683.2" y1="312" x2="683.2" y2="346"/>
	</g>
	<g>
		<line class="st7" x1="167.2" y1="505" x2="167.2" y2="561.7"/>
	</g>
</g>
<g id="Roof" class="st8">
	<rect x="165.8" y="217.7" class="st9" width="519" height="414.7"/>
</g>
<g id="Legend">
	<g>
		<text transform="matrix(1 0 0 1 59.0061 27.961)" class="st10 st11">Door</text>
		<g>
			<line class="st5" x1="52.4" y1="24.4" x2="24" y2="24.4"/>
		</g>
	</g>
	<g>
		<g>
			<line class="st4" x1="24" y1="41.8" x2="52.4" y2="41.8"/>
		</g>
		<text transform="matrix(1 0 0 1 59.0062 45.2878)" class="st10 st11">Bay window</text>
	</g>
	<g>
		<g>
			<line class="st6" x1="24" y1="59.1" x2="52.4" y2="59.1"/>
		</g>
		<text transform="matrix(1 0 0 1 59.0059 62.6141)" class="st10 st11">Window</text>
	</g>
	<g>
		<g>
			<line class="st12" x1="52.4" y1="76.4" x2="24" y2="76.4"/>
		</g>
		<text transform="matrix(1 0 0 1 59.0063 79.9408)" class="st10 st11">Interior elevated window</text>
	</g>
</g>
</svg>
